<?xml version="1.0" encoding="UTF-8" standalone="no"?>
<!-- Extracted from http://upload.wikimedia.org/wikipedia/commons/2/25/Keep-calm-and-carry-on2.svg -->

<svg
   xmlns:dc="http://purl.org/dc/elements/1.1/"
   xmlns:cc="http://creativecommons.org/ns#"
   xmlns:rdf="http://www.w3.org/1999/02/22-rdf-syntax-ns#"
   xmlns:svg="http://www.w3.org/2000/svg"
   xmlns="http://www.w3.org/2000/svg"
   xmlns:sodipodi="http://sodipodi.sourceforge.net/DTD/sodipodi-0.dtd"
   xmlns:inkscape="http://www.inkscape.org/namespaces/inkscape"
   width="212.90625"
   height="188.69829"
   viewBox="0 0 170.325 150.95863"
   version="1.1"
   id="svg2"
   inkscape:version="0.48.4 r9939"
   sodipodi:docname="Crown.svg"
   sodipodi:version="0.32"
   inkscape:output_extension="org.inkscape.output.svg.inkscape">
  <metadata
     id="metadata144">
    <rdf:RDF>
      <cc:Work
         rdf:about="">
        <dc:format>image/svg+xml</dc:format>
        <dc:type
           rdf:resource="http://purl.org/dc/dcmitype/StillImage" />
        <dc:title />
      </cc:Work>
    </rdf:RDF>
  </metadata>
  <defs
     id="defs142">
    <inkscape:perspective
       sodipodi:type="inkscape:persp3d"
       inkscape:vp_x="0 : 531.25 : 1"
       inkscape:vp_y="0 : 1000 : 0"
       inkscape:vp_z="755 : 531.25 : 1"
       inkscape:persp3d-origin="377.5 : 354.16667 : 1"
       id="perspective146" />
  </defs>
  <sodipodi:namedview
     pagecolor="#000000"
     bordercolor="#666666"
     borderopacity="1"
     objecttolerance="10"
     gridtolerance="10"
     guidetolerance="10"
     inkscape:pageopacity="0"
     inkscape:pageshadow="2"
     inkscape:window-width="1885"
     inkscape:window-height="1180"
     id="namedview140"
     showgrid="true"
     showguides="true"
     inkscape:zoom="1.5564516"
     inkscape:cx="149.96148"
     inkscape:cy="19.296258"
     inkscape:window-x="35"
     inkscape:window-y="0"
     inkscape:window-maximized="1"
     inkscape:current-layer="layer1"
     fit-margin-top="0"
     fit-margin-left="0"
     fit-margin-right="0"
     fit-margin-bottom="0">
    <inkscape:grid
       type="xygrid"
       id="grid2455"
       empspacing="5"
       visible="true"
       enabled="true"
       snapvisiblegridlinesonly="true"
       originx="-283.00356px"
       originy="-540.5691px" />
  </sodipodi:namedview>
  <g
     inkscape:groupmode="layer"
     id="layer1"
     inkscape:label="bg"
     style="display:inline"
     transform="translate(-226.40285,-266.5861)" />
  <g
     inkscape:groupmode="layer"
     id="layer2"
     inkscape:label="fg"
     style="display:inline"
     transform="translate(-226.40285,-266.5861)">
    <g
       id="g3003"
       transform="matrix(0.99984768,-0.01745241,0.01745241,0.99984768,7.3409244,240.51378)">
      <path
         style="fill:#ffffff;stroke:#ffffff;stroke-width:0.1171875"
         d="m 443.53125,403.96875 c -2.82851,0.002 -5.65996,0.1061 -8.53125,0.34375 2.32819,4.46005 4.88834,8.91061 6.96875,13.5 -3.40503,-1.69083 -6.55716,-3.74454 -9.84375,-5.8125 -0.41048,5.13295 -0.31034,10.25516 0.0312,15.5 3.09616,-1.67929 6.06223,-3.48134 8.90625,-5.28125 0.16643,2.37246 0.20855,4.84411 0.25,7.21875 -3.09398,1.80427 -6.83826,2.99902 -8.65625,6.28125 -3.53064,5.43745 -1.13645,13.54478 5.03125,15.9375 7.32307,4.12282 17.96293,-2.32472 17.1875,-10.9375 -0.21661,-5.24702 -4.64888,-8.54327 -8.9375,-10.71875 l -0.125,-6.875 c 2.90292,1.57458 5.69521,3.27132 8.71875,4.59375 0.29204,-4.75582 0.33288,-9.62791 0.125,-14.375 -3.22114,1.68147 -6.33701,3.22256 -9.6875,4.65625 2.16894,-4.66356 4.86231,-9.08644 7.03125,-13.75 -2.81643,-0.20088 -5.64024,-0.28374 -8.46875,-0.28125 z m -2.40625,30 c 0.0393,2.25539 0.0567,4.51098 -0.0312,6.625 -2.01278,-1.00908 -4.0163,-2.02187 -6.03125,-3.15625 1.97351,-1.24632 3.96183,-2.36381 6.0625,-3.46875 z m 4.84375,0.125 c 1.66939,1.1495 3.3268,2.41871 4.875,3.71875 -1.60921,0.83875 -3.20704,1.69323 -4.8125,2.65625 -0.064,-2.11251 -0.12343,-4.23621 -0.0625,-6.375 z M 444.25,445 c 2.19306,0.008 4.3193,0.56383 6.21875,2.09375 -4.6508,2.62406 -10.36834,3.38825 -14.625,-0.375 2.64425,-0.83995 5.5866,-1.72957 8.40625,-1.71875 z"
         transform="matrix(0.79987817,0.01396193,-0.01396193,0.79987817,-44.296253,-297.87109)"
         id="path6"
         inkscape:connector-curvature="0" />
      <path
         id="path12"
         d="m 284.4,64.2 c 2.2,-1.8 6.3,-0.1 6.2,2.8 0.3,2.7 -2.8,4.6 -5.2,3.7 -3.2,-0.4 -3.9,-5.1 -1,-6.5 z"
         style="fill:#ffffff;stroke:#ffffff;stroke-width:0.09375"
         inkscape:connector-curvature="0" />
      <path
         id="path16"
         d="m 316.4,64.1 c 2.8,-2.3 7.5,1.4 5.6,4.6 -1.1,2.8 -5.9,3 -6.9,0 -1.2,-1.6 -0.1,-3.6 1.3,-4.6 z"
         style="fill:#ffffff;stroke:#ffffff;stroke-width:0.09375"
         inkscape:connector-curvature="0" />
      <path
         id="path18"
         d="m 273.4,66.2 c 2.5,-1.7 6.5,0.7 5.9,3.7 -0.5,2.4 -3.7,4.4 -5.8,2.8 -2.8,-1.1 -2.7,-5.3 -0.1,-6.5 z"
         style="fill:#ffffff;stroke:#ffffff;stroke-width:0.09375"
         inkscape:connector-curvature="0" />
      <path
         id="path20"
         d="m 328.4,67.2 c 3.4,-1.3 7.2,3.6 3.8,6 -1.6,2 -4.8,1.5 -6,-0.6 -1.6,-1.9 0,-4.8 2.2,-5.4 z"
         style="fill:#ffffff;stroke:#ffffff;stroke-width:0.09375"
         inkscape:connector-curvature="0" />
      <path
         id="path22"
         d="m 261.4,73.2 c 0.4,-3.7 7.2,-4.2 7.3,-0.1 0.5,2.5 -2.1,3.5 -3.7,4.7 -1.5,-1.3 -4,-2.3 -3.6,-4.6 z"
         style="fill:#ffffff;stroke:#ffffff;stroke-width:0.09375"
         inkscape:connector-curvature="0" />
      <path
         id="path24"
         d="m 338.5,71.5 c 2,-1 5.3,0.2 5.2,2.6 0.7,3.3 -3.8,5.5 -6.1,3.2 -2.3,-1.3 -1.3,-5 0.9,-5.8 z"
         style="fill:#ffffff;stroke:#ffffff;stroke-width:0.09375"
         inkscape:connector-curvature="0" />
      <path
         id="path26"
         d="m 244.4,90.4 c 14.2,-9.6 30.7,-15.8 47.6,-18.3 2.5,6.6 4.9,13.3 6,20.3 -1.3,0.2 -2.6,0.3 -3.8,0.5 -1.1,-5.7 -2.7,-11.4 -4.9,-16.7 -19.2,3.7 -37.8,11.8 -52.5,24.9 -1,-0.6 -2,-1.3 -3,-1.9 3.1,-3.5 6.8,-6.2 10.6,-8.8 z"
         style="fill:#ffffff;stroke:#ffffff;stroke-width:0.09375"
         inkscape:connector-curvature="0" />
      <path
         id="path28"
         d="m 301.6,72.6 c 4.4,-2.1 7.5,5.2 2.8,6.7 -4.3,1.8 -7.1,-4.9 -2.8,-6.7 z"
         style="fill:#ffffff;stroke:#ffffff;stroke-width:0.09375"
         inkscape:connector-curvature="0" />
      <path
         id="path30"
         d="m 314.4,73 c 20.8,3.6 40.3,13.4 56,27.4 -0.8,0.9 -1.6,1.8 -2.5,2.8 -14.5,-13 -32.3,-22 -51.3,-26.1 -2.2,5.4 -4.1,10.9 -5.4,16.5 -1.2,-0.2 -2.5,-0.4 -3.7,-0.6 1.5,-6.9 4,-13.6 6.9,-20 z"
         style="fill:#ffffff;stroke:#ffffff;stroke-width:0.09375"
         inkscape:connector-curvature="0" />
      <path
         id="path32"
         d="m 252.7,77.1 c 0,-2 2.7,-2.2 4.1,-3.1 1,1.1 1.9,2.2 2.9,3.3 -1.1,1.2 -1.7,3.6 -3.7,3.4 -1.9,0.1 -4,-1.6 -3.3,-3.6 z"
         style="fill:#ffffff;stroke:#ffffff;stroke-width:0.09375"
         inkscape:connector-curvature="0" />
      <path
         id="path34"
         d="m 347.7,77.1 c 1.8,-0.3 4.2,-0.7 5.1,1.3 1.3,1.5 -0.1,4.3 -2,4.4 -2,0.6 -3.2,-1.3 -4.5,-2.3 0.4,-0.8 1,-2.5 1.4,-3.4 z"
         style="fill:#ffffff;stroke:#ffffff;stroke-width:0.09375"
         inkscape:connector-curvature="0" />
      <path
         id="path36"
         d="m 243,83 c 1.4,-2.5 3.9,-3.2 6.6,-2.6 0.1,1.7 0,3.5 -0.1,5.2 -2.7,0.6 -5.1,-0.1 -6.5,-2.6 z"
         style="fill:#ffffff;stroke:#ffffff;stroke-width:0.09375"
         inkscape:connector-curvature="0" />
      <path
         id="path38"
         d="m 299,84 c 1.4,-2.7 3.9,-3.3 6.7,-2.6 0,1.7 0,3.4 -0.1,5.2 -2.7,0.6 -5.2,0 -6.6,-2.6 z"
         style="fill:#ffffff;stroke:#ffffff;stroke-width:0.09375"
         inkscape:connector-curvature="0" />
      <path
         id="path40"
         d="m 357.3,82.3 c 4.3,-2 6.3,5.3 1.7,5.6 -3.6,1 -5,-4.7 -1.7,-5.6 z"
         style="fill:#ffffff;stroke:#ffffff;stroke-width:0.09375"
         inkscape:connector-curvature="0" />
      <path
         id="path42"
         d="m 236.8,86.1 c 1.9,0 3.8,0.7 5.4,1.8 -0.8,1.1 -1.5,2.3 -2.4,3.3 -1.4,-0.1 -2.7,-0.6 -4,-0.9 0.3,-1.4 0.6,-2.8 1,-4.2 z"
         style="fill:#ffffff;stroke:#ffffff;stroke-width:0.09375"
         inkscape:connector-curvature="0" />
      <path
         style="fill:#ffffff;stroke:#ffffff;stroke-width:0.1171875"
         d="m 496.34375,473.625 c -8.25592,6.89514 -13.31237,17.99875 -11.5,28.71875 -2.16831,-2.46253 -4.35804,-5.30687 -7.625,-6.25 -5.52098,-1.15382 -12.22347,1.71595 -14.125,7.375 -1.77,6.03181 -0.39253,12.98549 4.1875,17.53125 1.69301,-3.28005 2.24116,-8.02631 6.09375,-9.34375 4.22317,-1.57394 8.40122,2.23025 9.09375,6.09375 1.64594,8.34755 -5.56378,16.85384 -13.9375,17 -7.49449,0.38085 -15.56803,-3.24745 -19.0625,-10.0625 -1.93143,-3.21678 -1.99924,-7.0943 -2.0625,-10.71875 3.53219,1.81363 6.83406,4.27801 10.25,6.59375 0.7287,-8.389 0.83363,-16.91189 0.4375,-25.28125 -4.21445,2.07387 -7.91706,5.1493 -11.875,7.59375 1.89716,-5.90901 4.29032,-11.68692 6.0625,-17.59375 -6.88268,-0.37994 -13.87825,-0.4034 -20.875,-0.15625 1.85881,6.21851 4.57869,12.18774 6.4375,18.40625 -3.67462,-2.8113 -6.97943,-5.99904 -10.53125,-8.9375 -0.7287,8.389 -1.08361,16.88282 -0.5625,25.25 3.9623,-2.19449 7.6831,-4.76762 12.03125,-6.34375 -0.78324,5.26447 -2.4432,10.43514 -6.125,14.375 -6.25841,6.73525 -16.86895,8.54291 -25.1875,4.6875 -5.53843,-2.15367 -9.64513,-8.20221 -8.75,-14.21875 0.29204,-4.75582 5.74485,-8.85864 10.28125,-6.8125 4.15709,1.80272 3.84319,7.0558 5.28125,10.65625 3.68835,-3.56491 7.50218,-8.00738 7.03125,-13.5 0.74834,-7.26417 -6.87103,-14.3763 -14.09375,-12.75 -2.98864,0.67726 -5.3434,2.70882 -7.6875,4.5 0.69816,-10.13873 -3.72929,-20.07158 -11.46875,-26.5625 -4.97806,8.46317 -5.65642,19.23179 -1.25,28.15625 -5.66777,-2.40145 -12.67085,-2.89691 -17.46875,1.5625 -9.37857,7.03975 -6.49199,22.86279 3.59375,27.6875 -0.0894,-5.12422 -1.08049,-12.36878 4.625,-14.96875 5.69459,-3.22488 12.91995,1.77786 12.78125,8.15625 1.18964,10.85589 -10.95274,17.58405 -20.46875,16.75 -11.26792,-0.92849 -19.31489,-11.1637 -21.625,-21.75 5.5297,1.65375 10.07117,5.08119 14.75,8.125 -1.4047,-8.85183 -4.03733,-17.57401 -6.5625,-26.15625 -3.44056,3.43557 -7.00218,7.01332 -11.59375,8.96875 2.39927,-5.79276 6.03611,-11.10693 8.8125,-16.78125 -6.1088,0.98176 -12.05832,2.8352 -17.90625,4.4375 0.80879,3.3614 2.09746,6.7011 2.90625,10.0625 0.93813,3.60918 -0.50078,7.27962 -0.5625,10.90625 0.33286,4.74491 6.01315,6.38879 6.84375,11 1.33271,4.72746 2.5132,9.45784 3.71875,14.0625 2.11532,6.58909 -1.64467,12.90942 -1.40625,19.40625 4.32571,4.30016 8.65405,8.71065 13.59375,12.375 3.62008,-0.31323 6.85953,-2.12873 10.21875,-3.0625 18.03498,-5.31556 36.74124,-7.51669 55.46875,-8.96875 32.56985,-3.44395 65.89115,1.34661 96.59375,12.6875 4.53049,-5.4549 9.18824,-10.64103 13.59375,-16.09375 -1.09365,-5.35673 -3.18532,-10.56988 -3.65625,-16.0625 1.41033,-5.1504 3.33755,-10.31179 5.125,-15.34375 1.18218,-3.89623 5.25748,-6.10598 6.3125,-10.125 0.45193,-2.75831 -0.57697,-5.62106 -0.375,-8.375 1.18218,-3.89623 2.97193,-7.53689 4.40625,-11.3125 -5.0276,-1.53749 -10.16647,-2.96463 -15.3125,-4.125 1.84354,5.34364 3.68097,10.8221 4.28125,16.5625 -3.0519,-2.94719 -5.84997,-6.14442 -8.78125,-9.34375 -2.75021,7.17409 -5.63118,14.46842 -7.375,22 4.72964,-1.20773 9.18531,-3.26328 13.78125,-4.96875 -2.59033,9.1716 -8.54728,18.26992 -18.125,21.0625 -7.95297,2.76422 -17.86757,-0.32533 -22.25,-7.875 -2.95746,-4.6991 -2.09016,-11.45765 2.09375,-15.28125 2.45599,-2.54325 7.59761,-2.37519 9.40625,0.96875 2.69223,3.8286 0.27166,8.48972 -0.28125,12.625 4.70783,-2.45754 9.77729,-5.18026 11.9375,-10.34375 3.00672,-6.80351 1.45086,-17.01284 -6.46875,-19.5 -5.41345,-2.15585 -10.609,0.92186 -15.0625,3.625 4.70628,-9.70861 4.88819,-21.33438 -0.0312,-31 z m -54.3125,32.09375 c 1.40395,0.0477 2.71746,2.08288 1.40625,3.34375 -1.71919,1.78028 -4.5026,-1.06127 -2.65625,-2.71875 0.29851,-0.35683 0.62297,-0.53772 0.96875,-0.59375 0.0937,-0.0152 0.18765,-0.0344 0.28125,-0.0312 z M 539.90625,513 c 1.15973,1.98006 1.58577,4.22346 1.875,6.46875 -1.35952,0.89886 -2.85923,1.78864 -4.21875,2.6875 0.19324,-3.25387 1.01914,-6.25769 2.34375,-9.15625 z M 341.625,513.34375 c 2.29983,2.83529 3.00134,6.30431 2.5625,9.8125 -3.04317,-2.44726 -3.74904,-6.16624 -2.5625,-9.8125 z m 99.5625,24 5.03125,8.53125 c -1.57021,3.15288 -3.27356,6.18868 -4.96875,9.34375 -1.67711,-2.97118 -3.22912,-5.93289 -4.78125,-8.90625 1.5724,-3.0279 3.14635,-5.94085 4.71875,-8.96875 z m 17.1875,2.6875 c 1.49977,-0.0262 3.00025,0.0909 4.625,0.0625 0.0284,1.62475 0.15914,3.25025 0.1875,4.875 -1.62475,0.0284 -3.22118,0.19041 -4.84375,0.34375 -0.0305,-1.74973 -0.0632,-3.52934 0.0312,-5.28125 z m -40,0.21875 c 1.88344,0.4672 3.76843,1.06191 5.53125,1.78125 l -2.5625,4.15625 c -1.25854,-0.47811 -2.39771,-0.95939 -3.65625,-1.4375 l 0.6875,-4.5 z M 398.5,541 c 6.05767,-0.10574 12.56947,3.3811 11.1875,10.15625 -2.97182,8.80321 -17.57767,10.41586 -22.46875,2.375 -2.20758,-4.71219 1.46869,-9.39484 5.6875,-11.21875 1.61057,-0.84074 3.57453,-1.27725 5.59375,-1.3125 z m 83.5625,0.25 c 6.31713,-0.0309 13.32642,4.08665 12.53125,10.90625 -3.08589,9.43029 -18.85441,8.58953 -22.75,0.28125 -1.83263,-4.71873 1.33068,-9.386 6.0625,-10.46875 1.28109,-0.46774 2.69845,-0.71162 4.15625,-0.71875 z m 25.0625,6.4375 c 1.75191,0.0944 3.49807,0.0596 5.125,0.15625 0.16861,2.49744 -0.79906,4.6462 -3.15625,5.6875 -0.63799,-0.73898 -1.89542,-2.07132 -2.40625,-2.6875 0.11189,-0.75207 0.32779,-2.2792 0.4375,-3.15625 z M 371,548.4375 c 2.50835,0.45629 3.89616,2.07595 4.6875,4.4375 -1.36606,0.52392 -2.72987,1.1636 -4.09375,1.8125 -0.51083,-0.61618 -1.77044,-1.72975 -2.40625,-2.34375 0.48247,-1.00857 1.33003,-2.89768 1.8125,-3.90625 z m 52.4375,3.34375 c 0.51956,1.1161 1.04294,2.10265 1.5625,3.21875 -0.7368,0.76298 -1.60695,1.54952 -2.34375,2.3125 -1.13137,-0.35531 -2.39988,-0.86344 -3.53125,-1.21875 0.10098,-1.37697 0.21152,-2.62303 0.3125,-4 1.24763,-0.1468 2.62739,-0.16352 4,-0.3125 z m 35.03125,0.625 c 1.00857,0.48247 3.02268,1.58003 4.03125,2.0625 -0.97149,1.6422 -1.96383,3.17028 -2.9375,4.6875 -1.01294,-0.73243 -2.76829,-2.07789 -3.65625,-2.8125 0.85305,-1.26508 1.70945,-2.67242 2.5625,-3.9375 z m 70.625,0.15625 c 1.04566,2.60715 1.95434,5.33035 3,7.9375 -1.83545,2.28238 -3.78957,4.59044 -5.75,6.875 -0.92068,-2.60933 -1.82934,-5.2366 -2.875,-7.84375 1.83326,-2.40736 3.66457,-4.68419 5.625,-6.96875 z m -175.5,1.4375 c 1.65748,1.84635 3.67967,3.67841 4.96875,5.90625 0.0414,2.37464 -0.41649,4.77725 -0.625,7.15625 -2.15522,-1.71265 -4.42969,-3.43059 -5.84375,-5.65625 0.33131,-2.50616 0.91654,-5.0207 1.5,-7.40625 z m 151.59375,4.46875 c 1.13355,0.48029 2.2727,1.11346 3.40625,1.59375 l 0.0625,3.25 c -0.99112,0.51738 -1.97765,0.88669 -3.09375,1.40625 -0.63581,-0.614 -1.92671,-1.70068 -2.6875,-2.3125 0.72589,-1.38788 1.45945,-2.67242 2.3125,-3.9375 z m -130.25,0.90625 c 0.63799,0.73898 2.04732,2.35479 2.6875,3.21875 -1.60294,1.27817 -3.32371,2.30894 -5.3125,2.96875 -0.27178,-1.24545 -0.82197,-3.62955 -1.09375,-4.875 1.24326,-0.39676 2.47549,-0.91574 3.71875,-1.3125 z"
         transform="matrix(0.79987817,0.01396193,-0.01396193,0.79987817,-44.296253,-297.87109)"
         id="path44"
         inkscape:connector-curvature="0" />
      <path
         id="path46"
         d="m 365.5,88.4 c 1.5,-0.3 2.9,0.5 4.3,0.9 -0.4,1.4 -0.9,2.9 -1.4,4.3 -1,-0.1 -2.9,-0.2 -3.8,-0.3 -0.1,-1.7 -0.8,-3.8 0.9,-4.9 z"
         style="fill:#ffffff;stroke:#ffffff;stroke-width:0.09375"
         inkscape:connector-curvature="0" />
      <path
         id="path48"
         d="m 301.3,89.5 c 1.1,-0.2 2.2,-0.3 3.2,-0.3 0.1,1.4 0.2,2.8 0.2,4.2 -1.4,0.1 -2.7,0.3 -4.1,0.5 0,-1.5 -1.2,-3.7 0.7,-4.4 z"
         style="fill:#ffffff;stroke:#ffffff;stroke-width:0.09375"
         inkscape:connector-curvature="0" />
      <path
         id="path50"
         d="m 228.8,95.1 c 1.2,-2.3 3.2,-3.5 5.8,-2.8 0,1.5 -0.1,2.9 -0.2,4.4 -2,0.2 -4,-0.4 -5.6,-1.6 z"
         style="fill:#ffffff;stroke:#ffffff;stroke-width:0.09375"
         inkscape:connector-curvature="0" />
      <path
         id="path52"
         d="m 371.1,94.6 c 1.7,-0.2 3.3,-0.2 5,-0.1 0,0.9 0,2.9 0,3.9 -1.5,0.2 -3,0.3 -4.5,0.4 -0.2,-1.4 -0.4,-2.8 -0.5,-4.2 z"
         style="fill:#ffffff;stroke:#ffffff;stroke-width:0.09375"
         inkscape:connector-curvature="0" />
      <path
         id="path86"
         d="m 251,166.2 c 13.5,-3 27.3,-3.7 41,-4.5 19.4,-0.5 39.1,0.3 57.9,5.4 5,1.4 10.4,3.1 14,7.1 -3.6,4.2 -9.3,4.8 -14.3,5.8 -10.1,1.5 -20.4,2 -30.6,2.3 -20.5,0.2 -41.2,-0.2 -61.5,-3.6 -6.4,-1.2 -13.3,-2.3 -18.5,-6.6 2.7,-4 7.7,-4.9 12,-5.9 z"
         style="fill:#ffffff;stroke:#ffffff;stroke-width:0.09375"
         inkscape:connector-curvature="0" />
    </g>
  </g>
</svg>
