<?xml version="1.0" encoding="UTF-8" standalone="no"?>
<!-- Originally from http://upload.wikimedia.org/wikipedia/commons/2/25/Keep-calm-and-carry-on2.svg -->
<svg xmlns:dc="http://purl.org/dc/elements/1.1/" xmlns:cc="http://creativecommons.org/ns#" xmlns:rdf="http://www.w3.org/1999/02/22-rdf-syntax-ns#" xmlns:svg="http://www.w3.org/2000/svg" xmlns="http://www.w3.org/2000/svg" xmlns:sodipodi="http://sodipodi.sourceforge.net/DTD/sodipodi-0.dtd" xmlns:inkscape="http://www.inkscape.org/namespaces/inkscape" width="604pt" height="850pt" viewBox="0 0 604 850" version="1.1" id="svg2" inkscape:version="0.46" sodipodi:docname="Keep-calm-and-carry-on2.svg" sodipodi:version="0.32" inkscape:output_extension="org.inkscape.output.svg.inkscape">
  <metadata id="metadata144">
    <rdf:RDF>
      <cc:Work rdf:about="">
        <dc:format>image/svg+xml</dc:format>
        <dc:type rdf:resource="http://purl.org/dc/dcmitype/StillImage"/>
        <dc:title/>
      </cc:Work>
    </rdf:RDF>
  </metadata>
  <defs id="defs142">
    <inkscape:perspective sodipodi:type="inkscape:persp3d" inkscape:vp_x="0 : 531.25 : 1" inkscape:vp_y="0 : 1000 : 0" inkscape:vp_z="755 : 531.25 : 1" inkscape:persp3d-origin="377.5 : 354.16667 : 1" id="perspective146"/>
  </defs>
  <sodipodi:namedview pagecolor="#ffffff" bordercolor="#666666" borderopacity="1" objecttolerance="10" gridtolerance="10" guidetolerance="10" inkscape:pageopacity="0" inkscape:pageshadow="2" inkscape:window-width="1365" inkscape:window-height="721" id="namedview140" showgrid="true" showguides="true" inkscape:zoom="0.48376471" inkscape:cx="377.5" inkscape:cy="531.25" inkscape:window-x="0" inkscape:window-y="9" inkscape:window-maximized="1" inkscape:current-layer="svg2">
    <inkscape:grid type="xygrid" id="grid2455"/>
  </sodipodi:namedview>
  <path d="M 0,0 604,0 604,850 0,850 0,0 z" id="path4" style="fill:#d00000;stroke:#d00000;stroke-width:0.09375"/>
  <g id="g3003" transform="matrix(0.9998477,-0.01745241,0.01745241,0.9998477,-1.819325,5.2938866)">
    <path id="path6" d="m 298,31.6 c 4.6,-0.3 9.1,-0.2 13.6,0.2 -1.8,3.7 -4,7.2 -5.8,10.9 2.7,-1.1 5.2,-2.3 7.8,-3.6 0.1,3.8 0,7.7 -0.3,11.5 -2.4,-1.1 -4.6,-2.5 -6.9,-3.8 0,1.8 0,3.6 0,5.5 3.4,1.8 6.9,4.5 7,8.7 0.5,6.9 -8.1,11.9 -13.9,8.5 -4.9,-2 -6.7,-8.5 -3.8,-12.8 1.5,-2.6 4.5,-3.5 7,-4.9 0,-1.9 0,-3.9 -0.1,-5.8 -2.3,1.4 -4.7,2.8 -7.2,4.1 -0.2,-4.2 -0.2,-8.3 0.2,-12.4 2.6,1.7 5.1,3.4 7.8,4.8 -1.6,-3.7 -3.6,-7.3 -5.4,-10.9 z" style="fill:#ffffff;stroke:#ffffff;stroke-width:0.09375"/>
    <path id="path8" d="m 297.6,58 c 1.6,-1.2 3.2,-2.3 4.9,-3.4 0,1.8 0,3.6 -0.1,5.3 -1.6,-0.6 -3.2,-1.2 -4.8,-1.9 z" style="fill:#d00000;stroke:#d00000;stroke-width:0.09375"/>
    <path id="path10" d="m 306.4,55.2 c 1.3,1.2 2.6,2.5 3.8,3.8 -1.3,0.4 -2.6,0.8 -3.9,1.3 0,-1.7 0,-3.4 0.1,-5.1 z" style="fill:#d00000;stroke:#d00000;stroke-width:0.09375"/>
    <path id="path12" d="m 284.4,64.2 c 2.2,-1.8 6.3,-0.1 6.2,2.8 0.3,2.7 -2.8,4.6 -5.2,3.7 -3.2,-0.4 -3.9,-5.1 -1,-6.5 z" style="fill:#ffffff;stroke:#ffffff;stroke-width:0.09375"/>
    <path id="path14" d="m 297.4,64.8 c 3.9,-0.6 8.5,-1.2 11.5,2.1 -4,1.5 -8.6,1.4 -11.5,-2.1 z" style="fill:#d00000;stroke:#d00000;stroke-width:0.09375"/>
    <path id="path16" d="m 316.4,64.1 c 2.8,-2.3 7.5,1.4 5.6,4.6 -1.1,2.8 -5.9,3 -6.9,0 -1.2,-1.6 -0.1,-3.6 1.3,-4.6 z" style="fill:#ffffff;stroke:#ffffff;stroke-width:0.09375"/>
    <path id="path18" d="m 273.4,66.2 c 2.5,-1.7 6.5,0.7 5.9,3.7 -0.5,2.4 -3.7,4.4 -5.8,2.8 -2.8,-1.1 -2.7,-5.3 -0.1,-6.5 z" style="fill:#ffffff;stroke:#ffffff;stroke-width:0.09375"/>
    <path id="path20" d="m 328.4,67.2 c 3.4,-1.3 7.2,3.6 3.8,6 -1.6,2 -4.8,1.5 -6,-0.6 -1.6,-1.9 0,-4.8 2.2,-5.4 z" style="fill:#ffffff;stroke:#ffffff;stroke-width:0.09375"/>
    <path id="path22" d="m 261.4,73.2 c 0.4,-3.7 7.2,-4.2 7.3,-0.1 0.5,2.5 -2.1,3.5 -3.7,4.7 -1.5,-1.3 -4,-2.3 -3.6,-4.6 z" style="fill:#ffffff;stroke:#ffffff;stroke-width:0.09375"/>
    <path id="path24" d="m 338.5,71.5 c 2,-1 5.3,0.2 5.2,2.6 0.7,3.3 -3.8,5.5 -6.1,3.2 -2.3,-1.3 -1.3,-5 0.9,-5.8 z" style="fill:#ffffff;stroke:#ffffff;stroke-width:0.09375"/>
    <path id="path26" d="m 244.4,90.4 c 14.2,-9.6 30.7,-15.8 47.6,-18.3 2.5,6.6 4.9,13.3 6,20.3 -1.3,0.2 -2.6,0.3 -3.8,0.5 -1.1,-5.7 -2.7,-11.4 -4.9,-16.7 -19.2,3.7 -37.8,11.8 -52.5,24.9 -1,-0.6 -2,-1.3 -3,-1.9 3.1,-3.5 6.8,-6.2 10.6,-8.8 z" style="fill:#ffffff;stroke:#ffffff;stroke-width:0.09375"/>
    <path id="path28" d="m 301.6,72.6 c 4.4,-2.1 7.5,5.2 2.8,6.7 -4.3,1.8 -7.1,-4.9 -2.8,-6.7 z" style="fill:#ffffff;stroke:#ffffff;stroke-width:0.09375"/>
    <path id="path30" d="m 314.4,73 c 20.8,3.6 40.3,13.4 56,27.4 -0.8,0.9 -1.6,1.8 -2.5,2.8 -14.5,-13 -32.3,-22 -51.3,-26.1 -2.2,5.4 -4.1,10.9 -5.4,16.5 -1.2,-0.2 -2.5,-0.4 -3.7,-0.6 1.5,-6.9 4,-13.6 6.9,-20 z" style="fill:#ffffff;stroke:#ffffff;stroke-width:0.09375"/>
    <path id="path32" d="m 252.7,77.1 c 0,-2 2.7,-2.2 4.1,-3.1 1,1.1 1.9,2.2 2.9,3.3 -1.1,1.2 -1.7,3.6 -3.7,3.4 -1.9,0.1 -4,-1.6 -3.3,-3.6 z" style="fill:#ffffff;stroke:#ffffff;stroke-width:0.09375"/>
    <path id="path34" d="m 347.7,77.1 c 1.8,-0.3 4.2,-0.7 5.1,1.3 1.3,1.5 -0.1,4.3 -2,4.4 -2,0.6 -3.2,-1.3 -4.5,-2.3 0.4,-0.8 1,-2.5 1.4,-3.4 z" style="fill:#ffffff;stroke:#ffffff;stroke-width:0.09375"/>
    <path id="path36" d="m 243,83 c 1.4,-2.5 3.9,-3.2 6.6,-2.6 0.1,1.7 0,3.5 -0.1,5.2 -2.7,0.6 -5.1,-0.1 -6.5,-2.6 z" style="fill:#ffffff;stroke:#ffffff;stroke-width:0.09375"/>
    <path id="path38" d="m 299,84 c 1.4,-2.7 3.9,-3.3 6.7,-2.6 0,1.7 0,3.4 -0.1,5.2 -2.7,0.6 -5.2,0 -6.6,-2.6 z" style="fill:#ffffff;stroke:#ffffff;stroke-width:0.09375"/>
    <path id="path40" d="m 357.3,82.3 c 4.3,-2 6.3,5.3 1.7,5.6 -3.6,1 -5,-4.7 -1.7,-5.6 z" style="fill:#ffffff;stroke:#ffffff;stroke-width:0.09375"/>
    <path id="path42" d="m 236.8,86.1 c 1.9,0 3.8,0.7 5.4,1.8 -0.8,1.1 -1.5,2.3 -2.4,3.3 -1.4,-0.1 -2.7,-0.6 -4,-0.9 0.3,-1.4 0.6,-2.8 1,-4.2 z" style="fill:#ffffff;stroke:#ffffff;stroke-width:0.09375"/>
    <path id="path44" d="m 259.5,86.6 c 6.1,5.3 9.5,13.3 8.8,21.4 1.9,-1.4 3.8,-3 6.2,-3.5 5.8,-1.2 11.8,4.6 11.1,10.4 0.3,4.4 -2.8,7.9 -5.8,10.7 -1.1,-2.9 -0.8,-7.1 -4.1,-8.6 -3.6,-1.7 -8,1.5 -8.3,5.3 -0.8,4.8 2.4,9.7 6.8,11.5 6.6,3.2 15.1,1.9 20.2,-3.4 3,-3.1 4.4,-7.2 5.1,-11.4 -3.5,1.2 -6.5,3.2 -9.7,4.9 -0.3,-6.7 0.1,-13.5 0.8,-20.2 2.8,2.4 5.4,5 8.3,7.3 -1.4,-5 -3.5,-9.8 -4.9,-14.8 5.6,-0.1 11.2,0 16.7,0.4 -1.5,4.7 -3.5,9.3 -5.1,14 3.2,-1.9 6.2,-4.3 9.6,-5.9 0.2,6.7 0,13.5 -0.7,20.2 -2.7,-1.9 -5.3,-3.9 -8.1,-5.4 0,2.9 0,6 1.5,8.6 2.7,5.5 9.1,8.5 15.1,8.3 6.7,0 12.6,-6.7 11.4,-13.4 -0.5,-3.1 -3.8,-6.2 -7.2,-5 -3.1,1 -3.6,4.8 -5,7.4 -3.6,-3.7 -4.6,-9.3 -3.1,-14.1 1.6,-4.5 7,-6.7 11.4,-5.7 2.6,0.8 4.3,3.1 6,5.1 -1.3,-8.6 2.9,-17.4 9.6,-22.8 3.8,7.8 3.5,17.1 -0.4,24.8 3.6,-2.1 7.8,-4.5 12.1,-2.7 6.3,2.1 7.4,10.3 4.9,15.7 -1.8,4.1 -5.9,6.2 -9.7,8.1 0.5,-3.3 2.5,-7 0.4,-10.1 -1.4,-2.7 -5.5,-2.9 -7.5,-0.9 -3.4,3 -4.2,8.4 -1.9,12.2 3.4,6.1 11.3,8.7 17.7,6.6 7.7,-2.1 12.6,-9.3 14.8,-16.6 -3.7,1.3 -7.3,2.9 -11.1,3.8 1.5,-6 3.9,-11.8 6.2,-17.5 2.3,2.6 4.5,5.2 6.9,7.6 -0.4,-4.6 -1.8,-9 -3.2,-13.3 4.1,1 8.2,2.2 12.2,3.5 -1.2,3 -2.7,5.9 -3.7,9 -0.2,2.2 0.6,4.5 0.2,6.7 -0.9,3.2 -4.2,4.9 -5.2,8 -1.5,4 -3.1,8.1 -4.3,12.2 0.3,4.4 1.9,8.6 2.7,12.9 -3.6,4.3 -7.4,8.4 -11.1,12.7 -24.4,-9.5 -51,-13.8 -77.1,-11.5 -15,0.9 -30,2.4 -44.5,6.4 -2.7,0.7 -5.3,2.1 -8.2,2.3 -3.9,-3 -7.3,-6.6 -10.7,-10.1 -0.1,-5.2 3,-10.2 1.4,-15.5 -0.9,-3.7 -1.8,-7.5 -2.8,-11.3 -0.6,-3.7 -5.1,-5.1 -5.3,-8.9 0.1,-2.9 1.3,-5.8 0.6,-8.7 -0.6,-2.7 -1.6,-5.4 -2.2,-8.1 4.7,-1.2 9.5,-2.6 14.4,-3.3 -2.3,4.5 -5.3,8.7 -7.3,13.3 3.7,-1.5 6.6,-4.3 9.4,-7 1.9,6.9 3.9,13.9 4.9,21 -3.7,-2.5 -7.3,-5.3 -11.7,-6.7 1.7,8.5 8,16.8 17,17.7 7.6,0.8 17.4,-4.4 16.6,-13.1 0.2,-5.1 -5.5,-9.2 -10.1,-6.7 -4.6,2 -3.9,7.8 -3.9,11.9 -8,-4 -10.1,-16.7 -2.5,-22.2 3.9,-3.5 9.5,-3 14,-1 -3.4,-7.2 -2.7,-15.8 1.4,-22.5 z" style="fill:#ffffff;stroke:#ffffff;stroke-width:0.09375"/>
    <path id="path46" d="m 365.5,88.4 c 1.5,-0.3 2.9,0.5 4.3,0.9 -0.4,1.4 -0.9,2.9 -1.4,4.3 -1,-0.1 -2.9,-0.2 -3.8,-0.3 -0.1,-1.7 -0.8,-3.8 0.9,-4.9 z" style="fill:#ffffff;stroke:#ffffff;stroke-width:0.09375"/>
    <path id="path48" d="m 301.3,89.5 c 1.1,-0.2 2.2,-0.3 3.2,-0.3 0.1,1.4 0.2,2.8 0.2,4.2 -1.4,0.1 -2.7,0.3 -4.1,0.5 0,-1.5 -1.2,-3.7 0.7,-4.4 z" style="fill:#ffffff;stroke:#ffffff;stroke-width:0.09375"/>
    <path id="path50" d="m 228.8,95.1 c 1.2,-2.3 3.2,-3.5 5.8,-2.8 0,1.5 -0.1,2.9 -0.2,4.4 -2,0.2 -4,-0.4 -5.6,-1.6 z" style="fill:#ffffff;stroke:#ffffff;stroke-width:0.09375"/>
    <path id="path52" d="m 371.1,94.6 c 1.7,-0.2 3.3,-0.2 5,-0.1 0,0.9 0,2.9 0,3.9 -1.5,0.2 -3,0.3 -4.5,0.4 -0.2,-1.4 -0.4,-2.8 -0.5,-4.2 z" style="fill:#ffffff;stroke:#ffffff;stroke-width:0.09375"/>
    <path id="path54" d="m 301.2,113.3 c 1.3,-1.5 3.5,0.9 2.1,2.2 -1.4,1.4 -3.6,-0.9 -2.1,-2.2 z" style="fill:#d00000;stroke:#d00000;stroke-width:0.09375"/>
    <path id="path56" d="m 223.7,125.4 c -2.4,-2 -2.9,-5 -1.9,-7.9 1.8,2.3 2.3,5.1 1.9,7.9 z" style="fill:#d00000;stroke:#d00000;stroke-width:0.09375"/>
    <path id="path58" d="m 380.4,120 c 0.9,1.6 1.2,3.4 1.4,5.2 -1.1,0.7 -2.3,1.4 -3.4,2.1 0.2,-2.6 0.9,-5 2,-7.3 z" style="fill:#d00000;stroke:#d00000;stroke-width:0.09375"/>
    <path id="path60" d="m 297.2,145.2 c 1.3,-2.4 2.6,-4.7 3.9,-7.1 1.3,2.3 2.6,4.6 3.9,6.9 -1.3,2.5 -2.7,4.9 -4.1,7.4 -1.3,-2.4 -2.5,-4.8 -3.7,-7.2 z" style="fill:#d00000;stroke:#d00000;stroke-width:0.09375"/>
    <path id="path62" d="m 282.8,140.1 c 1.5,0.4 3,0.9 4.4,1.5 -0.7,1.1 -1.4,2.2 -2.1,3.3 -1,-0.4 -1.9,-0.8 -2.9,-1.2 0.2,-1.2 0.4,-2.4 0.6,-3.6 z" style="fill:#d00000;stroke:#d00000;stroke-width:0.09375"/>
    <path id="path64" d="m 314.8,140.5 c 1.2,0 2.4,0.1 3.7,0.1 0,1.3 0.1,2.6 0.1,3.9 -1.3,0 -2.6,0.1 -3.9,0.2 0,-1.4 0,-2.8 0.1,-4.2 z" style="fill:#d00000;stroke:#d00000;stroke-width:0.09375"/>
    <path id="path66" d="m 262.4,141.4 c 5.2,-2.6 14.9,0.1 13.3,7.3 -2.5,7 -14.2,8.1 -18,1.6 -1.7,-3.8 1.3,-7.5 4.7,-8.9 z" style="fill:#d00000;stroke:#d00000;stroke-width:0.09375"/>
    <path id="path68" d="m 330.4,142.3 c 5.5,-1.9 14.1,1.7 13.2,8.4 -2.6,7.5 -15.2,6.6 -18.2,-0.1 -1.4,-3.8 1.2,-7.5 5,-8.3 z" style="fill:#d00000;stroke:#d00000;stroke-width:0.09375"/>
    <path id="path70" d="m 244.8,146 c 2,0.4 3.1,1.7 3.7,3.6 -1.1,0.4 -2.2,0.9 -3.3,1.4 -0.4,-0.5 -1.4,-1.4 -1.9,-1.9 0.4,-0.8 1.1,-2.3 1.5,-3.1 z" style="fill:#d00000;stroke:#d00000;stroke-width:0.09375"/>
    <path id="path72" d="m 353.7,147.3 c 1.4,0.1 2.8,0.1 4.1,0.2 0.1,2 -0.7,3.7 -2.6,4.5 -0.5,-0.6 -1.5,-1.7 -1.9,-2.2 0.1,-0.6 0.3,-1.8 0.4,-2.5 z" style="fill:#d00000;stroke:#d00000;stroke-width:0.09375"/>
    <path id="path74" d="m 283.5,149.6 c 1,-0.1 2.1,-0.1 3.2,-0.2 0.4,0.9 0.8,1.7 1.2,2.6 -0.6,0.6 -1.3,1.2 -1.9,1.8 -0.9,-0.3 -1.9,-0.7 -2.8,-1 0.1,-1.1 0.2,-2.1 0.3,-3.2 z" style="fill:#d00000;stroke:#d00000;stroke-width:0.09375"/>
    <path id="path76" d="m 229.5,156.1 c 0.3,-2 0.8,-4 1.3,-5.9 1.3,1.5 2.9,3 3.9,4.8 0,1.9 -0.4,3.8 -0.6,5.7 -1.7,-1.4 -3.5,-2.8 -4.6,-4.6 z" style="fill:#d00000;stroke:#d00000;stroke-width:0.09375"/>
    <path id="path78" d="m 312.6,153.5 c 0.7,-1 1.4,-2.1 2.1,-3.1 0.8,0.4 2.4,1.3 3.2,1.7 -0.8,1.3 -1.6,2.5 -2.4,3.7 -0.8,-0.6 -2.2,-1.7 -2.9,-2.3 z" style="fill:#d00000;stroke:#d00000;stroke-width:0.09375"/>
    <path id="path80" d="m 366.6,157 c 1.5,-1.9 3,-3.7 4.6,-5.5 0.8,2.1 1.5,4.3 2.3,6.4 -1.5,1.8 -3.1,3.6 -4.7,5.4 -0.7,-2.1 -1.4,-4.2 -2.2,-6.3 z" style="fill:#d00000;stroke:#d00000;stroke-width:0.09375"/>
    <path id="path82" d="m 244.8,155.8 c 1,-0.3 2,-0.7 3,-1 0.5,0.6 1.6,1.9 2.1,2.6 -1.3,1 -2.7,1.8 -4.3,2.3 -0.2,-1 -0.6,-2.9 -0.8,-3.9 z" style="fill:#d00000;stroke:#d00000;stroke-width:0.09375"/>
    <path id="path84" d="m 352,155.9 c 0.9,0.4 1.8,0.9 2.7,1.3 0,0.7 0,2 0,2.6 -0.8,0.4 -1.6,0.7 -2.5,1.1 -0.5,-0.5 -1.5,-1.4 -2.1,-1.9 0.6,-1.1 1.2,-2.1 1.9,-3.1 z" style="fill:#d00000;stroke:#d00000;stroke-width:0.09375"/>
    <path id="path86" d="m 251,166.2 c 13.5,-3 27.3,-3.7 41,-4.5 19.4,-0.5 39.1,0.3 57.9,5.4 5,1.4 10.4,3.1 14,7.1 -3.6,4.2 -9.3,4.8 -14.3,5.8 -10.1,1.5 -20.4,2 -30.6,2.3 -20.5,0.2 -41.2,-0.2 -61.5,-3.6 -6.4,-1.2 -13.3,-2.3 -18.5,-6.6 2.7,-4 7.7,-4.9 12,-5.9 z" style="fill:#ffffff;stroke:#ffffff;stroke-width:0.09375"/>
  </g>
  <g id="g2457">
    <path style="fill:#ffffff;stroke:#ffffff;stroke-width:0.09375" id="path88" d="M 146.14966,216.45 C 151.54966,216.45 157.04966,216.45 162.54966,216.45 C 162.34966,229.35 162.14966,242.25 162.14966,255.25 C 172.84966,243.65 183.54966,232.05 194.14966,220.35 C 195.74966,219.05 196.84966,216.65 199.14966,216.65 C 205.04966,216.45 211.04966,216.65 217.04966,216.65 C 204.14966,230.85 191.24966,245.05 178.14966,259.15 C 191.54966,273.85 205.14966,288.45 218.24966,303.35 C 211.14966,303.35 204.04966,303.55 196.94966,303.25 C 193.84966,301.75 192.04966,298.55 189.74966,296.15 C 180.34966,286.05 171.24966,275.55 161.64966,265.75 C 161.34966,278.15 161.24966,290.45 161.04966,302.85 C 155.54966,302.85 150.04966,302.85 144.44966,302.85 C 145.24966,274.05 145.34966,245.25 146.14966,216.45 L 146.14966,216.45 z"/>
    <path style="fill:#ffffff;stroke:#ffffff;stroke-width:0.09375" id="path90" d="M 233.64966,216.48614 C 253.04966,216.28614 272.54966,216.98614 292.04966,216.88614 C 292.04966,221.08614 291.74966,225.18614 291.64966,229.28614 C 277.64966,229.38614 263.64966,229.08614 249.74966,229.08614 C 249.54966,236.48614 249.64966,243.88614 249.54966,251.28614 C 263.54966,251.38614 277.44966,251.38614 291.44966,251.48614 C 291.44966,255.78614 291.34966,260.08614 291.34966,264.28614 C 277.34966,264.18614 263.34966,264.18614 249.34966,264.08614 C 249.44966,272.68614 249.24966,281.28614 249.14966,289.88614 C 263.14966,289.98614 277.14966,289.98614 291.24966,290.08614 C 291.14966,294.48614 291.14966,298.98614 291.04966,303.38614 C 271.64966,303.48614 252.14966,303.18614 232.64966,303.18614 C 233.34966,274.28614 233.34966,245.38614 233.64966,216.48614 L 233.64966,216.48614 z"/>
    <path style="fill:#ffffff;stroke:#ffffff;stroke-width:0.09375" id="path92" d="M 316.64966,216.45 C 335.94966,216.75 355.24966,216.45 374.64966,217.25 C 374.54966,221.25 374.54966,225.35 374.54966,229.45 C 360.54966,229.45 346.54966,229.15 332.64966,229.15 C 332.64966,236.55 332.54966,243.95 332.54966,251.35 C 346.54966,251.35 360.44966,251.55 374.44966,251.65 C 374.34966,255.85 374.34966,260.05 374.34966,264.25 C 360.44966,264.15 346.44966,264.35 332.54966,263.85 C 332.54966,272.45 332.44966,281.05 332.44966,289.65 C 346.44966,289.45 360.34966,290.05 374.34966,290.15 C 374.34966,294.65 374.34966,299.05 374.24966,303.55 C 354.84966,303.35 335.54966,303.15 316.14966,303.05 C 316.24966,274.15 316.34966,245.25 316.64966,216.45 L 316.64966,216.45 z"/>
    <g transform="translate(-0.1503409,-1.05)" id="g2954">
      <path style="fill:#ffffff;stroke:#ffffff;stroke-width:0.09375" d="M 398.9,217.5 C 409.3,217.5 419.6,217.7 430,217.9 C 437.9,217.9 445.7,221.1 451.4,226.6 C 462.3,237.2 462.6,256.9 451.5,267.5 C 447.9,270.9 443.5,273.3 438.8,274.9 C 431.6,277.4 423.8,276.2 416.3,276.4 C 416.5,285.7 416.4,294.9 416.3,304.2 C 410.5,304.3 404.7,303.9 398.8,303.8 C 398.7,275.1 399,246.3 398.9,217.5 L 398.9,217.5 z" id="path94"/>
      <path style="fill:#d00000;stroke:#d00000;stroke-width:0.09375" d="M 416.2,229.8 C 423.3,229.8 431.2,229.3 437,234 C 446.2,241 443.8,257.7 432.9,261.8 C 427.6,263.5 421.8,262.3 416.3,262.6 C 416.3,251.7 416.4,240.8 416.2,229.8 L 416.2,229.8 z" id="path96"/>
    </g>
  </g>
  <g id="g2465" transform="translate(-4.1506751e-6,0)">
    <path style="fill:#ffffff;stroke:#ffffff;stroke-width:0.09375" id="path98" d="M 137.81545,358.17995 C 149.61545,347.97995 166.41545,344.17995 181.41545,347.97995 C 191.61545,350.27995 200.71545,355.97995 207.51545,363.77995 C 203.51545,367.47995 199.41545,371.07995 195.41545,374.97995 C 188.81545,368.37995 180.11545,363.07995 170.51545,363.27995 C 157.21545,362.77995 143.91545,371.57995 140.21545,384.57995 C 137.21545,394.57995 140.61545,406.07995 148.41545,412.97995 C 158.21545,422.17995 174.01545,423.87995 185.61545,417.07995 C 189.61545,414.87995 192.91545,411.67995 195.91545,408.27995 C 199.71545,412.27995 203.11545,416.57995 206.81545,420.67995 C 197.21545,429.77995 185.01545,437.07995 171.51545,437.47995 C 156.41545,438.27995 141.01545,431.67995 131.61545,419.77995 C 125.11545,411.67995 121.61545,401.27995 122.01545,390.87995 C 122.11545,378.27995 128.11545,366.07995 137.81545,358.17995 L 137.81545,358.17995 z"/>
    <path style="fill:#ffffff;stroke:#ffffff;stroke-width:0.09375" id="path102" d="M 320.21545,346.54877 C 326.21545,346.44877 332.21545,346.94877 338.21545,347.04877 C 338.01545,370.54877 338.11545,394.04877 337.81545,417.44877 C 351.51545,417.34877 365.11545,417.94877 378.81545,417.94877 C 378.71545,423.34877 378.71545,428.64877 378.71545,434.04877 C 359.01545,434.24877 339.41545,433.64877 319.71545,433.54877 C 319.81545,404.54877 320.11545,375.54877 320.21545,346.54877 L 320.21545,346.54877 z"/>
    <path style="fill:#ffffff;stroke:#ffffff;stroke-width:0.09375" id="path104" d="M 397.21545,346.53564 C 403.51545,346.63564 409.81545,346.43564 416.11545,346.93564 C 423.81545,360.93564 431.61545,374.93564 439.31545,388.93564 C 447.21545,375.03564 455.51545,361.23564 463.61545,347.43564 C 469.71545,347.43564 475.81545,347.53564 482.01545,347.53564 C 482.01545,376.23564 481.81545,404.93564 481.71545,433.63564 C 476.41545,433.73564 471.01545,433.53564 465.71545,433.63564 C 465.81545,415.23564 466.11545,396.83564 465.91545,378.53564 C 456.71545,392.73564 448.21545,407.33564 439.21545,421.63564 C 430.31545,407.53564 422.41545,392.83564 413.91545,378.43564 C 413.81545,396.73564 413.81545,415.03564 413.71545,433.23564 C 408.11545,433.33564 402.41545,433.33564 396.81545,433.23564 C 397.01545,404.33564 397.01545,375.43564 397.21545,346.53564 L 397.21545,346.53564 z"/>
    <g transform="translate(0.5154459,-2.0199336)" id="g2958">
      <path style="fill:#ffffff;stroke:#ffffff;stroke-width:0.09375" d="M 251.1,348.6 C 255.5,348.5 259.9,348.6 264.3,348.6 C 278.2,377.5 292.1,406.5 305.8,435.6 C 299.9,435.8 294,435.6 288.1,435.6 C 284.9,429.9 281.9,424.1 279,418.2 C 265,418.2 251.1,417.6 237.1,417.7 C 234.3,423.6 231.3,429.5 228.2,435.3 C 221.9,435.2 215.6,435.2 209.2,435.1 C 223,406.1 237.3,377.5 251.1,348.6 L 251.1,348.6 z" id="path100"/>
      <path style="fill:#d00000;stroke:#d00000;stroke-width:0.09375" d="M 243.9,403.3 C 248.5,393.4 253.3,383.7 258,373.8 C 262.8,383.6 267.2,393.6 271.9,403.4 C 262.6,403.5 253.2,403.3 243.9,403.3 L 243.9,403.3 z" id="path106"/>
    </g>
  </g>
  <g id="g2473">
    <path style="fill:#ffffff;stroke:#ffffff;stroke-width:0.09375" id="path110" d="M 286.83024,472.95303 C 289.73024,472.95303 292.63024,472.95303 295.63024,473.05303 C 300.73024,481.45303 306.33024,489.55303 311.73024,497.95303 C 311.83024,489.85303 311.63024,481.75303 311.93024,473.75303 C 314.33024,472.55303 317.33024,473.35303 319.93024,473.05303 C 319.83024,486.65303 319.73024,500.25303 319.63024,513.95303 C 317.23024,513.95303 314.73024,513.95303 312.23024,513.95303 C 306.53024,505.05303 300.63024,496.15303 294.93024,487.15303 C 294.73024,496.05303 294.73024,504.95303 294.63024,513.85303 C 291.93024,513.85303 289.23024,513.85303 286.53024,513.85303 C 286.53024,500.25303 286.63024,486.55303 286.83024,472.95303 z"/>
    <g transform="translate(1.2302379,-0.54697)" id="g2979">
      <path style="fill:#ffffff;stroke:#ffffff;stroke-width:0.09375" d="M 330.2,473.5 C 336.2,473.6 342.1,473.5 348.1,473.6 C 358.1,473.7 367.6,482.7 366.9,493 C 367.6,503.4 358.9,512.6 348.9,514.1 C 342.6,514.9 336.1,514.2 329.7,514.4 C 329.6,500.8 330.3,487.2 330.2,473.5 z" id="path112"/>
      <path style="fill:#d00000;stroke:#d00000;stroke-width:0.09375" d="M 339.6,481.2 C 344.3,481.5 350.2,480.2 353.7,484.3 C 359.5,489.4 358.2,499.7 351.7,503.6 C 348.1,506.2 343.5,505.7 339.4,505.7 C 339.5,497.5 339.5,489.4 339.6,481.2 L 339.6,481.2 z" id="path114"/>
    </g>
    <g transform="translate(1.2302379,-0.14697)" id="g2983">
      <path style="fill:#ffffff;stroke:#ffffff;stroke-width:0.09375" d="M 254.4,473.3 C 256.5,473 258.5,473.1 260.6,473.2 C 266.9,486.7 273.5,500.2 279.8,513.8 C 277,513.8 274.2,513.8 271.3,513.8 C 269.9,511.1 268.4,508.4 267,505.7 C 260.6,505.7 254.3,505.7 247.9,505.6 C 246.5,508.3 245.1,511 243.7,513.6 C 240.7,513.7 237.6,513.6 234.6,513.6 C 239.7,503 244.8,492.5 249.9,481.9 C 251.4,479 252.5,475.9 254.4,473.3 L 254.4,473.3 z" id="path108"/>
      <path style="fill:#d00000;stroke:#d00000;stroke-width:0.09375" d="M 257.3,485.5 C 259.6,489.8 261.6,494.3 263.9,498.7 C 259.6,498.7 255.3,498.6 251,498.6 C 253.2,494.3 255.3,489.9 257.3,485.5 L 257.3,485.5 z" id="path116"/>
    </g>
  </g>
  <g id="g2482" transform="translate(-1.0106669e-6,0)">
    <path style="fill:#ffffff;stroke:#ffffff;stroke-width:0.09375" id="path118" d="M 106.52615,567.45467 C 117.72615,554.75467 135.92615,548.45467 152.62615,552.15467 C 165.22615,554.15467 175.62615,562.25467 183.82615,571.55467 C 179.82615,575.25467 175.62615,578.65467 171.42615,582.25467 C 164.62615,574.25467 155.22615,567.85467 144.52615,567.55467 C 129.82615,566.45467 115.32615,577.85467 113.22615,592.45467 C 111.92615,602.35467 116.02615,612.75467 123.62615,619.25467 C 133.82615,627.95467 149.62615,628.95467 161.02615,622.05467 C 164.12615,620.25467 166.62615,617.65467 169.22615,615.15467 C 172.22615,619.95467 175.62615,624.55467 178.72615,629.25467 C 171.12615,636.25467 161.62615,641.25467 151.42615,642.75467 C 136.42615,644.75467 120.52615,639.85467 109.42615,629.45467 C 92.826149,613.65467 91.526149,584.75467 106.52615,567.45467 L 106.52615,567.45467 z"/>
    <path style="fill:#ffffff;stroke:#ffffff;stroke-width:0.09375" id="path126" d="M 418.22615,551.17891 C 425.12615,551.07891 431.92615,551.07891 438.82615,551.17891 C 446.62615,563.37891 454.62615,575.47891 462.42615,587.77891 C 470.52615,575.57891 478.92615,563.47891 487.02615,551.27891 C 494.02615,551.27891 500.92615,551.27891 507.92615,551.27891 C 495.72615,568.17891 483.42615,584.87891 471.12615,601.67891 C 469.92615,603.07891 470.22615,605.07891 470.12615,606.77891 C 470.22615,617.57891 470.02615,628.37891 470.02615,639.07891 C 464.22615,639.27891 458.52615,639.17891 452.72615,639.27891 C 452.72615,627.17891 453.32615,615.07891 452.82615,602.97891 C 441.52615,585.57891 429.72615,568.47891 418.22615,551.17891 L 418.22615,551.17891 z"/>
    <g transform="translate(2.4261486,-2.375384)" id="g2991">
      <path style="fill:#ffffff;stroke:#ffffff;stroke-width:0.09375" d="M 280.6,553.5 C 291.4,553.4 302.2,553.7 313,553.6 C 322.7,553.2 332,559.2 336.6,567.5 C 340.5,574.6 339.6,583.2 336.5,590.4 C 334.2,595.8 329.6,599.8 324.6,602.6 C 327.6,604.5 330.7,606.4 332.3,609.6 C 337.3,620.2 340,631.6 344.7,642.2 C 338.6,642 332.4,642.9 326.4,641.8 C 322.2,632.6 321.2,622 315.5,613.5 C 313.3,610.7 310.5,607.9 306.8,607.6 C 303.3,607.3 299.9,607.5 296.4,607.4 C 296.5,619 296.3,630.6 296.2,642.2 C 290.7,642.2 285.3,642.2 279.8,642.2 C 280.4,612.6 280.3,583.1 280.6,553.5 L 280.6,553.5 z" id="path122"/>
      <path style="fill:#d00000;stroke:#d00000;stroke-width:0.09375" d="M 296.7,567.6 C 303.5,568 311.4,566 317.2,570.7 C 324.4,576.1 322.4,589 314,592 C 308.4,593.9 302.3,592.9 296.5,593.1 C 296.6,584.6 296.7,576.1 296.7,567.6 z" id="path128"/>
    </g>
    <g transform="translate(2.4261486,-2.6806246)" id="g2987">
      <path style="fill:#ffffff;stroke:#ffffff;stroke-width:0.09375" d="M 355.5,553.9 C 366.4,553.7 377.2,553.8 388,553.9 C 398,553.7 407.7,560.1 411.8,569.1 C 416.9,581.4 411.2,597.2 399,602.8 C 401.9,604.6 405,606.3 406.6,609.4 C 411.8,620 414.3,631.6 419.3,642.3 C 413.1,642.5 406.9,642.3 400.8,642.4 C 397.5,633.5 395.8,624.1 391.4,615.6 C 389,611.6 385.1,607.6 380.1,607.7 C 377.1,607.6 374.2,607.7 371.2,607.7 C 371.5,619.2 371,630.8 370.7,642.3 C 365.3,642.4 360,642.3 354.6,642.3 C 354.7,612.8 355.4,583.3 355.5,553.9 L 355.5,553.9 z" id="path124"/>
      <path style="fill:#d00000;stroke:#d00000;stroke-width:0.09375" d="M 371.5,567.9 C 378.3,568 386.1,566.5 391.9,571.1 C 399.1,576.4 396.8,589.5 388.4,592.3 C 382.9,594.2 377,593.1 371.3,593.3 C 371.4,584.8 371.5,576.4 371.5,567.9 L 371.5,567.9 z" id="path130"/>
    </g>
    <g transform="translate(2.4261486,-2.0546733)" id="g2995">
      <path style="fill:#ffffff;stroke:#ffffff;stroke-width:0.09375" d="M 219.2,553.2 C 224,553.1 228.9,553.2 233.7,553.3 C 246.8,582.7 260,612.2 272.8,641.8 C 266.3,641.8 259.9,641.8 253.5,641.8 C 251,635.7 248.3,629.8 245.9,623.8 C 232.6,623.7 219.3,623.6 206,623.5 C 203.2,629.4 200.8,635.4 197.7,641.1 C 191.5,641.9 185.2,641.1 178.9,641.3 C 192.3,611.9 205.8,582.6 219.2,553.2 L 219.2,553.2 z" id="path120"/>
      <path style="fill:#d00000;stroke:#d00000;stroke-width:0.09375" d="M 225.2,577.7 C 229.9,588.1 234.4,598.7 239,609.2 C 230,609.2 221,609.3 211.9,608.8 C 216.4,598.4 220.9,588.1 225.2,577.7 L 225.2,577.7 z" id="path132"/>
    </g>
  </g>
  <g id="g2495">
    <path style="fill:#ffffff;stroke:#ffffff;stroke-width:0.09375" id="path136" d="M 321.65475,686.14033 C 327.75475,686.14033 333.85475,686.14033 339.95475,686.14033 C 352.25475,704.54033 364.25475,723.14033 376.45475,741.54033 C 376.85475,728.34033 376.55475,715.14033 376.95475,701.94033 C 377.35475,696.64033 377.25475,691.44033 377.25475,686.14033 C 382.95475,686.34033 388.65475,686.34033 394.35475,686.24033 C 393.75475,715.94033 393.65475,745.54033 393.45475,775.24033 C 388.25475,775.44033 383.05475,775.24033 377.85475,775.34033 C 364.65475,755.44033 351.85475,735.34033 338.65475,715.44033 C 338.25475,735.44033 338.65475,755.34033 337.95475,775.24033 C 332.15475,775.34033 326.45475,775.34033 320.75475,775.34033 C 321.05475,745.54033 321.55475,715.84033 321.65475,686.14033 L 321.65475,686.14033 z"/>
    <g transform="translate(3.0547514,0)" id="g2999">
      <path style="fill:#ffffff;stroke:#ffffff;stroke-width:0.09375" d="M 246.4,686.7 C 258.3,685 271,687.1 281,694 C 293.5,702.3 302,716.8 301.8,732 C 302.3,744.4 297.3,756.8 288.6,765.6 C 280,774.8 267.5,780 255,780.3 C 241.8,780.4 228.5,775.2 219.5,765.5 C 208.4,754 203.9,736.5 208.2,721.1 C 212.7,703.4 228.4,689.4 246.4,686.7 L 246.4,686.7 z" id="path134"/>
      <path style="fill:#d00000;stroke:#d00000;stroke-width:0.09375" d="M 248.4,703.6 C 257.8,702 268,704.4 274.9,711.1 C 285.3,720.3 287.6,737.1 279.8,748.7 C 272.8,760.2 257.5,765.6 244.8,761.1 C 235,757.8 227.1,749.1 225.1,739 C 223.4,731.3 224.9,722.9 229.3,716.3 C 233.6,709.7 240.7,705.2 248.4,703.6 L 248.4,703.6 z" id="path138"/>
    </g>
  </g>
</svg>
